<svg xmlns="http://www.w3.org/2000/svg" version="1.1" xmlns:xlink="http://www.w3.org/1999/xlink" xmlns:svgjs="http://svgjs.dev/svgjs" width="128" height="128" viewBox="0 0 128 128"><g transform="matrix(0.8046875,0,0,0.8046875,12.760752631578946,43.51282576048891)"><svg viewBox="0 0 95 38" data-background-color="#b6ff00" preserveAspectRatio="xMidYMid meet" height="51" width="128" xmlns="http://www.w3.org/2000/svg" xmlns:xlink="http://www.w3.org/1999/xlink"><g id="tight-bounds" transform="matrix(1,0,0,1,-0.24049999999999727,-0.029960879310493738)"><svg viewBox="0 0 95.481 37.92221226692158" height="37.92221226692158" width="95.481"><g><svg viewBox="0 0 95.481 37.92221226692158" height="37.92221226692158" width="95.481"><g><svg viewBox="0 0 95.481 37.92221226692158" height="37.92221226692158" width="95.481"><g id="textblocktransform"><svg viewBox="0 0 95.481 37.92221226692158" height="37.92221226692158" width="95.481" id="textblock"><g><svg viewBox="0 0 95.481 37.92221226692158" height="37.92221226692158" width="95.481"><g><svg viewBox="0 0 95.481 37.92221226692158" height="37.92221226692158" width="95.481"><g><svg xmlns="http://www.w3.org/2000/svg" xmlns:xlink="http://www.w3.org/1999/xlink" version="1.1" x="0" y="0" viewBox="0.0423315466087087 4.512687544700632 74.90065720722824 29.74831245529937" enable-background="new 0 0 75.155 34.762" xml:space="preserve" id="icon-0" width="95.481" height="37.92221226692158" class="icon-icon-0" data-fill-palette-color="accent"><g fill="#6a01fe" data-fill-palette-color="accent"><path d="M68.739 30.168A5 5 0 0 0 68.844 29.811C68.861 29.756 68.874 29.704 68.889 29.649 68.91 29.547 68.934 29.443 68.953 29.337A3 3 0 0 0 68.991 29.063C69.005 28.983 69.016 28.904 69.024 28.823 69.042 28.644 69.052 28.462 69.052 28.274A5.995 5.995 0 0 0 63.066 22.289 5.997 5.997 0 0 0 57.079 28.274C57.079 28.462 57.09 28.644 57.107 28.823 57.115 28.904 57.128 28.983 57.137 29.063 57.149 29.156 57.164 29.247 57.178 29.337 57.199 29.442 57.224 29.547 57.245 29.649 57.258 29.704 57.27 29.756 57.287 29.811 57.319 29.93 57.349 30.051 57.391 30.168V30.17A5.99 5.99 0 0 0 63.065 34.261 5.99 5.99 0 0 0 68.737 30.17z" fill="#ffffff" data-fill-palette-color="accent"></path><path d="M14.089 22.288A5.997 5.997 0 0 0 8.101 28.273C8.103 29.012 8.243 29.716 8.489 30.371A5.99 5.99 0 0 0 14.089 34.261 5.99 5.99 0 0 0 19.687 30.371 6 6 0 0 0 20.075 28.273 5.995 5.995 0 0 0 14.089 22.288" fill="#ffffff" data-fill-palette-color="accent"></path><path d="M71.431 15.013C66.994 11.469 64.824 8.661 63.881 7.201 65.031 7.201 65.564 6.791 65.655 6.668 66.01 6.172 49.759 3.321 36.36 5.079 34.029 5.384 28.925 7.107 21.451 11.643 17.312 14.155 10.39 12.563 5.679 16.167 1.389 19.448 0.012 21.62 0.134 23.221 0.292 25.247 1.152 25.78 0.227 26.703-1.08 28.009 4.911 30.215 6.88 30.215H7.341A7 7 0 0 1 7.065 28.273 7.023 7.023 0 0 1 21.112 28.273 7 7 0 0 1 20.832 30.215H24.253C25.452 30.215 38.115 30.03 38.115 30.03H56.274A7 7 0 0 1 56.042 28.272 7.025 7.025 0 0 1 63.067 21.25 7.02 7.02 0 0 1 70.087 28.272C70.087 28.881 70.004 29.47 69.86 30.03H70.646S72.494 28.367 73.324 28.367C74.897 28.368 76.699 19.221 71.431 15.013M54.933 19.752C54.933 20.659 54.197 21.394 53.291 21.394H52.47V23.138C52.47 24.044 51.735 24.78 50.828 24.78H28.466A1.64 1.64 0 0 1 26.825 23.138V13.703A1.64 1.64 0 0 1 28.466 12.061H50.828A1.64 1.64 0 0 1 52.47 13.703V15.445H53.291C54.196 15.445 54.933 16.179 54.933 17.087z" fill="#ffffff" data-fill-palette-color="accent"></path><path d="M37.71 17.151H35.719V15.158C35.719 14.586 35.253 14.119 34.678 14.119H34.158C33.583 14.119 33.117 14.586 33.117 15.158V17.151H31.125A1.04 1.04 0 0 0 30.085 18.192V18.711C30.085 19.286 30.55 19.75 31.125 19.75H33.117V21.743C33.117 22.316 33.583 22.783 34.158 22.783H34.678C35.253 22.783 35.719 22.316 35.719 21.743V19.75H37.71C38.283 19.75 38.748 19.286 38.748 18.711V18.192C38.748 17.616 38.283 17.151 37.71 17.151" fill="#ffffff" data-fill-palette-color="accent"></path><path d="M50.014 17.151H43.429A1.04 1.04 0 0 0 42.389 18.192V18.711C42.389 19.286 42.854 19.75 43.429 19.75H50.014C50.589 19.75 51.054 19.286 51.054 18.711V18.192A1.04 1.04 0 0 0 50.014 17.151" fill="#ffffff" data-fill-palette-color="accent"></path></g></svg></g></svg></g></svg></g></svg></g></svg></g></svg></g><defs></defs></svg><rect width="95.481" height="37.92221226692158" fill="none" stroke="none" visibility="hidden"></rect></g></svg></g></svg>